<?xml version="1.0" encoding="utf-8"?>
<svg version="1.1" x="0px" y="0px" viewBox="670.028 320.939 503.93 449.384" style="enable-background:new 0 0 1920 1080;" xmlns="http://www.w3.org/2000/svg">
  <defs/>
  <style type="text/css">
	.st0{display:none;}
</style>
  <g id="pig" class="st0"/>
  <g id="Layer_3">
    <g>
      <g>
        <path d="M946.04,750.8c-4.85,0-9.44-1.84-13.02-5.25c-5.23-4.98-7.65-12.73-8.7-19.9h-28.46c-1.78,10.04-7.6,17.97-13.35,22.51&#10;&#9;&#9;&#9;&#9;l-3.26,2.57l-4.35,0.06h-89.09l-3.87-4.67c-2.35-2.96-3.2-6.78-2.34-10.46c5.94-26.07-16.94-56.91-19.46-60.2&#10;&#9;&#9;&#9;&#9;c-77.51-84.05-49.44-176.35-46.82-184.32c44.16-162.56,227.66-138.32,264.99-131.6c43.99-41.93,82.32-28.75,86.68-27.06l0.01,0&#10;&#9;&#9;&#9;&#9;l5.28,2.06l3.68,10.97l-3.1,5.07c-8.72,13.71-11.41,35.03-11.75,48.11c33.52,25.28,50.77,61.65,57.45,78.77&#10;&#9;&#9;&#9;&#9;c12.19,0,20.21,4.85,25.08,9.47c17.02,16.11,14.58,46.59,13.77,53.55c0.73,23.68-4.96,40.4-16.9,49.7&#10;&#9;&#9;&#9;&#9;c-6.83,5.32-14.86,7.35-22.25,7.45c-12.04,38.73-57.55,81.58-63.18,86.77l-1.03,0.94l-1.22,0.69&#10;&#9;&#9;&#9;&#9;c-4.44,3.26-10.89,26.01-12.87,53.34l-0.81,11.1l-11.49,0.3h-78.87C946.53,750.8,946.29,750.8,946.04,750.8z M949.05,726.84&#10;&#9;&#9;&#9;&#9;h66.01c2.42-22.04,8.31-51.08,22.56-60.76c15.57-14.57,54.04-55.67,57.41-82.77l0.68-5.51l4.79-3.29&#10;&#9;&#9;&#9;&#9;c3.03-1.98,6.76-2.52,10.24-1.48c0.27,0.08,7.93,2.27,13.08-1.74c5.53-4.3,8.24-15.27,7.65-30.9l-0.04-1.05l0.14-1.04&#10;&#9;&#9;&#9;&#9;c1.08-8.09,0.94-27.1-6.39-34.01c-1.1-1.04-4.47-4.19-14.17-2.31l-10.54,2.04l-3.57-10.45c-0.65-2.1-16.12-51.22-56.39-78.79&#10;&#9;&#9;&#9;&#9;l-5.05-3.46l-0.28-6.35c-0.11-3.34-0.58-28.73,8-51.89c-11.87,0.39-30.73,5.43-52.23,27.63l-4.74,4.9l-6.9-1.49&#10;&#9;&#9;&#9;&#9;c-8-1.77-200.86-42.36-242.96,113.61l-0.24,0.77c-1.16,3.43-27.85,85.72,41.95,161.07l0.56,0.65&#10;&#9;&#9;&#9;&#9;c1.19,1.49,25.85,32.73,25.86,66.61h65.5c1.56-2.18,3.16-5.7,2.19-10.24l-1.19-5.57l3.65-4.74c2.35-2.91,5.85-4.59,9.59-4.59&#10;&#9;&#9;&#9;&#9;h55.97l3.79,3.66c2.32,2.35,3.58,5.48,3.55,8.79C947.46,719.22,948.19,724.17,949.05,726.84z M895.57,711.56&#10;&#9;&#9;&#9;&#9;c0.01,0.04,0.02,0.07,0.02,0.11C895.58,711.64,895.58,711.6,895.57,711.56z M1118.78,586.24c0,0.01,0,0.04-0.01,0.06&#10;&#9;&#9;&#9;&#9;C1118.77,586.28,1118.78,586.26,1118.78,586.24z"/>
      </g>
      <g>
        <path d="M914.06,609.66c-0.47,0-0.81-0.01-1.03-0.01l-40.97,0v-23.94h41.3c4.65,0.17,17.23-1.03,23.44-7.13&#10;&#9;&#9;&#9;&#9;c1.6-1.57,3.73-4.32,3.73-9.99c0-5.63-2.02-8.18-3.55-9.6c-5.87-5.49-18.22-5.99-22.07-5.75c-2.69,0.18-26.03,1.21-40.99-12.84&#10;&#9;&#9;&#9;&#9;c-7.64-7.18-11.68-17.05-11.68-28.54c0-11.93,4.14-22.16,11.98-29.59c14.43-13.66,36.26-13.42,40.13-13.26h40.66v23.94&#10;&#9;&#9;&#9;&#9;l-41.58-0.02c-4.13-0.21-16.41,0.66-22.79,6.76c-1.91,1.83-4.46,5.08-4.46,12.16c0,6.47,2.36,9.43,4.13,11.09&#10;&#9;&#9;&#9;&#9;c6.51,6.12,19.8,6.61,23.01,6.41c2.42-0.18,25.33-1.47,39.91,12.05c7.35,6.82,11.24,16.23,11.24,27.19&#10;&#9;&#9;&#9;&#9;c0,10.77-3.81,20.18-11.02,27.19C940.09,608.79,919.35,609.66,914.06,609.66z"/>
      </g>
      <g>
        <rect x="901.57" y="446.13" width="23.94" height="34.84"/>
      </g>
      <g>
        <rect x="901.57" y="597.62" width="23.94" height="35.25"/>
      </g>
    </g>
  </g>
</svg>